# xmcd CD database file
#
# Track frame offsets:
#	150
#	16283
#	34176
#	49569
#	52622
#	70634
#	88519
#	104893
#	120469
#	124559
#	141356
#	152719
#	153478
#	177476
#	198118
#	218433
#	238853
#	252692
#
# Disc length: 3533 seconds
#
# Revision: 0
# Processed by: cddbd v1.5.2PL0 Copyright (c) Steve Scherf et al.
# Submitted via: CDex 1.81
#
DISCID=f20dcb12
DTITLE=Troy Cassar-Daley - Things I Carry Around
DYEAR=2016
DGENRE=Country
TTITLE0=Funny How Things Change
TTITLE1=Halfway Creek Timber Cutting Man
TTITLE2=Things I Carry Around
TTITLE3=A Cold Walk Home
TTITLE4=Brighter Day
TTITLE5=When My Daddy Played
TTITLE6=Country Music's Coming To Town
TTITLE7=On My Way Back Around
TTITLE8=This River Is My Soul
TTITLE9=My Gumbaynggirr Skies
TTITLE10=Smoked WIth Willie and Merle
TTITLE11=Salvation
TTITLE12=Down The Road
TTITLE13=If My Heart Was A Town
TTITLE14=Running
TTITLE15=First Night Alone
TTITLE16=Certified Railway Man
TTITLE17=Blue Lights
EXTD=YEAR: 2016
EXTT0=
EXTT1=
EXTT2=
EXTT3=
EXTT4=
EXTT5=
EXTT6=
EXTT7=
EXTT8=
EXTT9=
EXTT10=
EXTT11=
EXTT12=
EXTT13=
EXTT14=
EXTT15=
EXTT16=
EXTT17=
PLAYORDER=
